<?xml version="1.0" encoding="UTF-8"?>
<svg version="1.1" xmlns="http://www.w3.org/2000/svg" width="500" height="500">
<path d="M0 0 C0.74056641 0.56654297 0.74056641 0.56654297 1.49609375 1.14453125 C0.62596221 14.63157006 -5.36865392 26.06503437 -15.50390625 35.14453125 C-16.16390625 35.14453125 -16.82390625 35.14453125 -17.50390625 35.14453125 C-17.50390625 35.80453125 -17.50390625 36.46453125 -17.50390625 37.14453125 C-20.50390625 39.14453125 -20.50390625 39.14453125 -23.50390625 39.14453125 C-23.17390625 39.47453125 -22.84390625 39.80453125 -22.50390625 40.14453125 C-21.03437219 39.88985104 -19.57663831 39.56545035 -18.12890625 39.20703125 C-15.42146229 38.54119405 -13.313343 38.14453125 -10.50390625 38.14453125 C-11.95542561 44.74234653 -15.47599486 50.77398272 -19.50390625 56.14453125 C-20.16390625 56.14453125 -20.82390625 56.14453125 -21.50390625 56.14453125 C-21.50390625 56.80453125 -21.50390625 57.46453125 -21.50390625 58.14453125 C-22.16390625 58.14453125 -22.82390625 58.14453125 -23.50390625 58.14453125 C-23.86742187 59.01078125 -23.86742187 59.01078125 -24.23828125 59.89453125 C-27.67793504 66.00947133 -34.60947453 70.51718865 -40.50390625 74.14453125 C-40.17390625 74.47453125 -39.84390625 74.80453125 -39.50390625 75.14453125 C-37.58966168 75.04269415 -37.58966168 75.04269415 -35.44140625 74.70703125 C-34.14203125 74.52140625 -32.84265625 74.33578125 -31.50390625 74.14453125 C-33.37515003 82.93937703 -38.95771209 91.01240359 -45.50390625 97.14453125 C-46.16390625 97.14453125 -46.82390625 97.14453125 -47.50390625 97.14453125 C-47.73078125 97.74265625 -47.95765625 98.34078125 -48.19140625 98.95703125 C-49.85999667 101.73801528 -51.63228945 102.70872285 -54.50390625 104.14453125 C-55.16390625 104.14453125 -55.82390625 104.14453125 -56.50390625 104.14453125 C-56.17390625 104.80453125 -55.84390625 105.46453125 -55.50390625 106.14453125 C-53.4792737 106.79666417 -53.4792737 106.79666417 -51.50390625 107.14453125 C-51.74771549 110.43595599 -52.683489 111.31556244 -55.12890625 113.64453125 C-59.82489657 117.30447574 -64.89863873 120.10625215 -70.50390625 122.14453125 C-70.50390625 122.47453125 -70.50390625 122.80453125 -70.50390625 123.14453125 C-69.69566406 123.18191406 -68.88742188 123.21929687 -68.0546875 123.2578125 C-66.98605469 123.32355469 -65.91742188 123.38929688 -64.81640625 123.45703125 C-63.76066406 123.51503906 -62.70492187 123.57304687 -61.6171875 123.6328125 C-58.2132722 124.19230172 -56.26697195 125.10731468 -53.50390625 127.14453125 C-50.83042481 131.15475342 -50.7936782 134.42894731 -51.50390625 139.14453125 C-53.50390625 142.20703125 -53.50390625 142.20703125 -55.50390625 144.14453125 C-54.45515627 146.76640619 -53.85459312 147.93824486 -51.37890625 149.39453125 C-50.76015625 149.64203125 -50.14140625 149.88953125 -49.50390625 150.14453125 C-49.50390625 150.80453125 -49.50390625 151.46453125 -49.50390625 152.14453125 C-48.66859375 152.29921875 -48.66859375 152.29921875 -47.81640625 152.45703125 C-44.09337221 153.56387921 -41.3905626 155.08438994 -38.88305664 158.08251953 C-36.83239809 162.6354244 -37.01646197 166.94500035 -37 171.88671875 C-36.9900148 172.92845245 -36.9800296 173.97018616 -36.96974182 175.04348755 C-36.95457618 177.24395789 -36.94751555 179.44449699 -36.94799805 181.64501953 C-36.94144149 185.00148875 -36.88695438 188.35499202 -36.83007812 191.7109375 C-36.82127441 193.85285451 -36.8153213 195.99478551 -36.8125 198.13671875 C-36.79094345 199.13484589 -36.7693869 200.13297302 -36.74717712 201.16134644 C-36.80423165 206.9987125 -37.60757209 210.39639121 -41.629776 214.70730591 C-46.28395772 218.27648575 -50.19552362 219.52154983 -56.02490234 219.48852539 C-57.2999765 219.4876442 -58.57505066 219.486763 -59.88876343 219.4858551 C-61.26830604 219.46833809 -62.64783342 219.44958497 -64.02734375 219.4296875 C-65.45691503 219.41686166 -66.88649087 219.40453575 -68.31607056 219.39268494 C-71.30698778 219.36375514 -74.29743524 219.32229837 -77.28808594 219.27319336 C-81.10321596 219.21246649 -84.91732917 219.19280327 -88.73288536 219.18390751 C-91.68454749 219.17071651 -94.63540075 219.13046026 -97.586689 219.08279228 C-98.99227301 219.06422989 -100.398016 219.05505242 -101.80372238 219.0558033 C-109.45220027 219.0480059 -115.16693438 218.90315331 -121.07852173 213.71800232 C-123.91796057 210.58356751 -124.75654251 208.60717888 -124.79443359 204.47705078 C-124.8071933 203.53241974 -124.819953 202.5877887 -124.83309937 201.61453247 C-124.83532501 200.59576019 -124.83755066 199.57698792 -124.83984375 198.52734375 C-124.84650055 197.4780368 -124.85315735 196.42872986 -124.86001587 195.34762573 C-124.87014557 193.12678786 -124.87483279 190.90591954 -124.87451172 188.68505859 C-124.87888052 185.28952754 -124.91518593 181.89530063 -124.953125 178.5 C-124.95899394 176.34245236 -124.96296282 174.18489855 -124.96484375 172.02734375 C-124.97921478 171.01261993 -124.99358582 169.99789612 -125.00839233 168.9524231 C-124.96284213 161.91301533 -124.96284213 161.91301533 -122.70458984 158.1315918 C-120.79617094 156.40842545 -118.9883641 154.86293072 -116.83203125 153.46875 C-116.16816406 153.03369141 -115.50429687 152.59863281 -114.8203125 152.15039062 C-114.13839844 151.71533203 -113.45648438 151.28027344 -112.75390625 150.83203125 C-112.05652344 150.37763672 -111.35914062 149.92324219 -110.640625 149.45507812 C-108.93322067 148.34409586 -107.21921614 147.2432683 -105.50390625 146.14453125 C-106.48481635 144.15386075 -107.45793143 142.21860179 -108.62890625 140.33203125 C-109.90983797 137.12970194 -109.80363204 134.56140529 -109.50390625 131.14453125 C-107.80248853 127.31634137 -106.37932348 125.63656688 -102.50390625 124.14453125 C-100.0955287 123.8557439 -97.67580157 123.65408099 -95.25390625 123.51953125 C-93.35898438 123.40738281 -93.35898438 123.40738281 -91.42578125 123.29296875 C-90.4615625 123.24398437 -89.49734375 123.195 -88.50390625 123.14453125 C-89.42535458 120.28472088 -90.35072978 117.48833975 -91.57421875 114.7421875 C-94.53554997 107.62402468 -94.87768984 101.10518829 -94.87890625 93.45703125 C-94.88035645 92.4832251 -94.88180664 91.50941895 -94.88330078 90.50610352 C-94.6979139 78.24869814 -94.6979139 78.24869814 -92.50390625 73.14453125 C-91.51390625 72.81453125 -90.52390625 72.48453125 -89.50390625 72.14453125 C-89.50390625 72.80453125 -89.50390625 73.46453125 -89.50390625 74.14453125 C-88.51390625 74.63953125 -88.51390625 74.63953125 -87.50390625 75.14453125 C-86.87890625 77.70703125 -86.87890625 77.70703125 -86.50390625 80.14453125 C-86.17390625 79.81453125 -85.84390625 79.48453125 -85.50390625 79.14453125 C-85.50996294 77.72726491 -85.56040836 76.31015429 -85.62890625 74.89453125 C-85.71242535 60.23692972 -80.03159347 47.39572426 -70.23828125 36.69140625 C-68.50390625 35.14453125 -68.50390625 35.14453125 -66.50390625 35.14453125 C-65.84390625 37.12453125 -65.18390625 39.10453125 -64.50390625 41.14453125 C-64.16359375 40.37109375 -63.82328125 39.59765625 -63.47265625 38.80078125 C-59.45919089 30.17610036 -54.48554529 22.25042338 -45.50390625 18.14453125 C-44.51390625 18.14453125 -43.52390625 18.14453125 -42.50390625 18.14453125 C-42.50390625 17.48453125 -42.50390625 16.82453125 -42.50390625 16.14453125 C-41.51390625 16.14453125 -40.52390625 16.14453125 -39.50390625 16.14453125 C-39.50390625 15.48453125 -39.50390625 14.82453125 -39.50390625 14.14453125 C-30.0399333 9.42303698 -20.58031697 4.9000256 -10.56640625 1.45703125 C-9.81633301 1.18938965 -9.06625977 0.92174805 -8.29345703 0.64599609 C-3.10566567 -1.06106206 -3.10566567 -1.06106206 0 0 Z M-40.50390625 35.14453125 C-39.50390625 37.14453125 -39.50390625 37.14453125 -39.50390625 37.14453125 Z M-43.50390625 39.14453125 C-42.50390625 41.14453125 -42.50390625 41.14453125 -42.50390625 41.14453125 Z M-45.50390625 41.14453125 C-45.17390625 41.80453125 -44.84390625 42.46453125 -44.50390625 43.14453125 C-44.17390625 42.48453125 -43.84390625 41.82453125 -43.50390625 41.14453125 C-44.16390625 41.14453125 -44.82390625 41.14453125 -45.50390625 41.14453125 Z M-46.50390625 43.14453125 C-47.16390625 44.46453125 -47.82390625 45.78453125 -48.50390625 47.14453125 C-47.84390625 47.14453125 -47.18390625 47.14453125 -46.50390625 47.14453125 C-46.17390625 45.82453125 -45.84390625 44.50453125 -45.50390625 43.14453125 C-45.83390625 43.14453125 -46.16390625 43.14453125 -46.50390625 43.14453125 Z M-49.50390625 47.14453125 C-50.16390625 47.80453125 -50.82390625 48.46453125 -51.50390625 49.14453125 C-51.17390625 50.13453125 -50.84390625 51.12453125 -50.50390625 52.14453125 C-49.84390625 50.49453125 -49.18390625 48.84453125 -48.50390625 47.14453125 C-48.83390625 47.14453125 -49.16390625 47.14453125 -49.50390625 47.14453125 Z M-53.50390625 52.14453125 C-53.83390625 53.46453125 -54.16390625 54.78453125 -54.50390625 56.14453125 C-53.51390625 55.15453125 -52.52390625 54.16453125 -51.50390625 53.14453125 C-52.16390625 52.81453125 -52.82390625 52.48453125 -53.50390625 52.14453125 Z M-55.50390625 56.14453125 C-54.50390625 58.14453125 -54.50390625 58.14453125 -54.50390625 58.14453125 Z M-56.50390625 58.14453125 C-57.18453125 59.25828125 -57.86515625 60.37203125 -58.56640625 61.51953125 C-58.94925781 62.14601563 -59.33210938 62.7725 -59.7265625 63.41796875 C-59.98308594 63.98773438 -60.23960937 64.5575 -60.50390625 65.14453125 C-60.17390625 65.80453125 -59.84390625 66.46453125 -59.50390625 67.14453125 C-57.37568741 64.32741479 -57.37568741 64.32741479 -55.50390625 61.14453125 C-55.83390625 60.15453125 -56.16390625 59.16453125 -56.50390625 58.14453125 Z M-61.50390625 67.14453125 C-61.83390625 68.46453125 -62.16390625 69.78453125 -62.50390625 71.14453125 C-61.84390625 69.82453125 -61.18390625 68.50453125 -60.50390625 67.14453125 C-60.83390625 67.14453125 -61.16390625 67.14453125 -61.50390625 67.14453125 Z M-63.50390625 71.14453125 C-63.83390625 72.46453125 -64.16390625 73.78453125 -64.50390625 75.14453125 C-63.84390625 73.82453125 -63.18390625 72.50453125 -62.50390625 71.14453125 C-62.83390625 71.14453125 -63.16390625 71.14453125 -63.50390625 71.14453125 Z M-65.50390625 75.14453125 C-74.41011165 90.86828322 -74.41011165 90.86828322 -77.50390625 108.14453125 C-75.89746495 105.7348693 -74.92758479 103.9129432 -73.91796875 101.265625 C-73.62857422 100.51345703 -73.33917969 99.76128906 -73.04101562 98.98632812 C-72.58952148 97.79620117 -72.58952148 97.79620117 -72.12890625 96.58203125 C-71.5071115 94.95549926 -70.88471927 93.32919554 -70.26171875 91.703125 C-69.96168945 90.91921387 -69.66166016 90.13530273 -69.35253906 89.32763672 C-67.98852924 85.81872539 -66.52384819 82.35213834 -65.03515625 78.89453125 C-64.25933502 77.06055317 -64.25933502 77.06055317 -65.50390625 75.14453125 Z M-78.50390625 109.14453125 C-78.83390625 111.12453125 -79.16390625 113.10453125 -79.50390625 115.14453125 C-77.16103207 112.47205491 -77.16103207 112.47205491 -76.50390625 109.14453125 C-77.16390625 109.14453125 -77.82390625 109.14453125 -78.50390625 109.14453125 Z M-80.50390625 115.14453125 C-80.83390625 117.45453125 -81.16390625 119.76453125 -81.50390625 122.14453125 C-80.84390625 121.81453125 -80.18390625 121.48453125 -79.50390625 121.14453125 C-78.84835506 118.6171989 -78.84835506 118.6171989 -78.50390625 116.14453125 C-79.16390625 115.81453125 -79.82390625 115.48453125 -80.50390625 115.14453125 Z M-99.50390625 134.14453125 C-99.50390625 135.13453125 -99.50390625 136.12453125 -99.50390625 137.14453125 C-86.63390625 137.14453125 -73.76390625 137.14453125 -60.50390625 137.14453125 C-60.99890625 135.65953125 -60.99890625 135.65953125 -61.50390625 134.14453125 C-74.04390625 134.14453125 -86.58390625 134.14453125 -99.50390625 134.14453125 Z M-95.50390625 146.14453125 C-95.89578125 147.27890625 -96.28765625 148.41328125 -96.69140625 149.58203125 C-99.41259702 155.16345173 -104.45251741 157.93589445 -109.5078125 161.1640625 C-112.91422809 163.27857398 -112.91422809 163.27857398 -115.50390625 166.14453125 C-115.81452189 168.95640043 -115.94811281 171.54229031 -115.9375 174.35546875 C-115.94274185 175.1606192 -115.9479837 175.96576965 -115.9533844 176.7953186 C-115.9598058 178.49829964 -115.95846603 180.20132502 -115.94995117 181.90429688 C-115.94145891 184.50341396 -115.97016909 187.10031987 -116.00195312 189.69921875 C-116.00356576 191.35546809 -116.00298641 193.01172131 -116 194.66796875 C-116.01123398 195.44208099 -116.02246796 196.21619324 -116.03404236 197.01376343 C-115.969768 202.02026325 -115.04888143 204.59735832 -111.50390625 208.14453125 C-110.01890625 207.64953125 -110.01890625 207.64953125 -108.50390625 207.14453125 C-108.83519531 206.273125 -109.16648437 205.40171875 -109.5078125 204.50390625 C-111.18956678 198.58722953 -110.65109271 192.47866441 -110.44140625 186.39453125 C-110.42658203 185.16347656 -110.41175781 183.93242187 -110.39648438 182.6640625 C-110.35845703 181.48714844 -110.32042969 180.31023437 -110.28125 179.09765625 C-110.25281006 178.02676758 -110.22437012 176.95587891 -110.19506836 175.85253906 C-109.50390625 173.14453125 -109.50390625 173.14453125 -107.19091797 171.29077148 C-103.66289794 169.7857693 -100.45075807 169.81673008 -96.69140625 169.95703125 C-95.65209961 169.97733398 -95.65209961 169.97733398 -94.59179688 169.99804688 C-92.8954936 170.0331428 -91.19959489 170.08694182 -89.50390625 170.14453125 C-89.54515625 168.86578125 -89.58640625 167.58703125 -89.62890625 166.26953125 C-89.64289402 161.83540873 -88.95462877 157.81010195 -87.94140625 153.50390625 C-87.47743977 151.00180129 -87.43187805 148.6835253 -87.50390625 146.14453125 C-90.14390625 146.14453125 -92.78390625 146.14453125 -95.50390625 146.14453125 Z M-79.50390625 147.14453125 C-80.75657465 154.58224987 -81.88102332 161.60218983 -81.50390625 169.14453125 C-79.79897744 170.84946006 -77.65856364 170.27257545 -75.3848877 170.28347778 C-74.31458313 170.28044144 -74.31458313 170.28044144 -73.22265625 170.27734375 C-72.49397339 170.27830048 -71.76529053 170.2792572 -71.01452637 170.28024292 C-69.47110915 170.2809246 -67.92768908 170.27907113 -66.38427734 170.27490234 C-64.01393225 170.26955387 -61.64377666 170.27484767 -59.2734375 170.28125 C-57.77734333 170.28058922 -56.28124928 170.27930805 -54.78515625 170.27734375 C-54.07161987 170.27936798 -53.3580835 170.28139221 -52.6229248 170.28347778 C-49.27904196 170.56101776 -49.27904196 170.56101776 -46.50390625 169.14453125 C-46.46326793 167.4783601 -46.46118525 165.8106503 -46.50390625 164.14453125 C-47.16390625 164.14453125 -47.82390625 164.14453125 -48.50390625 164.14453125 C-48.50390625 163.48453125 -48.50390625 162.82453125 -48.50390625 162.14453125 C-50.58872716 160.72579626 -50.58872716 160.72579626 -53.19140625 159.33203125 C-58.85747931 156.03817548 -62.52980492 153.09273391 -65.50390625 147.14453125 C-70.12390625 147.14453125 -74.74390625 147.14453125 -79.50390625 147.14453125 Z " fill="#101617" transform="translate(193.50390625,132.85546875)"/>
<path d="M0 0 C0.99 0.66 1.98 1.32 3 2 C3 2.99 3 3.98 3 5 C17.85 5.495 17.85 5.495 33 6 C31.68 6.99 30.36 7.98 29 9 C28.66574265 11.62625139 28.66574265 11.62625139 29 14 C27.35 14 25.7 14 24 14 C24.020625 15.19625 24.04125 16.3925 24.0625 17.625 C24.06697928 20.18267046 23.93154217 22.40218973 23.5 24.9375 C22.75830215 28.96322467 22.75830215 28.96322467 23 37 C33.89 37 44.78 37 56 37 C56.33 35.35 56.66 33.7 57 32 C56.34 32 55.68 32 55 32 C55 31.34 55 30.68 55 30 C54.34 30 53.68 30 53 30 C52.67 28.35 52.34 26.7 52 25 C52.99 25 53.98 25 55 25 C55.33 24.34 55.66 23.68 56 23 C62.42475272 23.36366525 62.42475272 23.36366525 64.69897461 25.87939453 C66.61532637 30.47590574 66.48746399 34.80638439 66.50390625 39.7421875 C66.51389145 40.7839212 66.52387665 41.82565491 66.53416443 42.8989563 C66.54933007 45.09942664 66.5563907 47.29996574 66.5559082 49.50048828 C66.56246476 52.8569575 66.61695187 56.21046077 66.67382812 59.56640625 C66.68263184 61.70832326 66.68858495 63.85025426 66.69140625 65.9921875 C66.7129628 66.99031464 66.73451935 67.98844177 66.75672913 69.01681519 C66.6996746 74.85418125 65.89633416 78.25185996 61.87413025 82.56277466 C57.21994853 86.1319545 53.30838263 87.37701858 47.47900391 87.34399414 C46.20392975 87.34311295 44.92885559 87.34223175 43.61514282 87.34132385 C42.23560021 87.32380684 40.85607283 87.30505372 39.4765625 87.28515625 C38.04699122 87.27233041 36.61741538 87.2600045 35.18783569 87.24815369 C32.19691847 87.21922389 29.20647101 87.17776712 26.21582031 87.12866211 C22.40069029 87.06793524 18.58657708 87.04827202 14.77102089 87.03937626 C11.81935876 87.02618526 8.8685055 86.98592901 5.91721725 86.93826103 C4.51163324 86.91969864 3.10589025 86.91052117 1.70018387 86.91127205 C-5.94829402 86.90347465 -11.66302813 86.75862206 -17.57461548 81.57347107 C-20.41405432 78.43903626 -21.25263626 76.46264763 -21.29052734 72.33251953 C-21.30328705 71.38788849 -21.31604675 70.44325745 -21.32919312 69.47000122 C-21.33141876 68.45122894 -21.33364441 67.43245667 -21.3359375 66.3828125 C-21.3425943 65.33350555 -21.3492511 64.28419861 -21.35610962 63.20309448 C-21.36623932 60.98225661 -21.37092654 58.76138829 -21.37060547 56.54052734 C-21.37497427 53.14499629 -21.41127968 49.75076938 -21.44921875 46.35546875 C-21.45508769 44.19792111 -21.45905657 42.0403673 -21.4609375 39.8828125 C-21.47530853 38.86808868 -21.48967957 37.85336487 -21.50448608 36.80789185 C-21.45884846 29.75497352 -21.45884846 29.75497352 -19.15087891 25.95751953 C-16.57176792 23.61026506 -13.91812865 21.66137427 -11 19.75 C-9.96875 19.06421875 -8.9375 18.3784375 -7.875 17.671875 C-5.46154353 16.2683976 -3.71959482 15.44454915 -1 15 C0.0257259 10.58937864 0.03684712 8.07369424 -2 4 C-1.34 4 -0.68 4 0 4 C-0.33 3.01 -0.66 2.02 -1 1 C-0.67 0.67 -0.34 0.34 0 0 Z M8 14 C7.608125 15.134375 7.21625 16.26875 6.8125 17.4375 C4.09130923 23.01892048 -0.94861116 25.7913632 -6.00390625 29.01953125 C-9.41032184 31.13404273 -9.41032184 31.13404273 -12 34 C-12.31061564 36.81186918 -12.44420656 39.39775906 -12.43359375 42.2109375 C-12.4388356 43.01608795 -12.44407745 43.8212384 -12.44947815 44.65078735 C-12.45589955 46.35376839 -12.45455978 48.05679377 -12.44604492 49.75976562 C-12.43755266 52.35888271 -12.46626284 54.95578862 -12.49804688 57.5546875 C-12.49965951 59.21093684 -12.49908016 60.86719006 -12.49609375 62.5234375 C-12.50732773 63.29754974 -12.51856171 64.07166199 -12.53013611 64.86923218 C-12.46586175 69.875732 -11.54497518 72.45282707 -8 76 C-6.515 75.505 -6.515 75.505 -5 75 C-5.33128906 74.12859375 -5.66257812 73.2571875 -6.00390625 72.359375 C-7.68566053 66.44269828 -7.14718646 60.33413316 -6.9375 54.25 C-6.92267578 53.01894531 -6.90785156 51.78789062 -6.89257812 50.51953125 C-6.85455078 49.34261719 -6.81652344 48.16570312 -6.77734375 46.953125 C-6.74890381 45.88223633 -6.72046387 44.81134766 -6.69116211 43.70800781 C-6 41 -6 41 -3.68701172 39.14624023 C-0.15899169 37.64123805 3.05314818 37.67219883 6.8125 37.8125 C7.85180664 37.83280273 7.85180664 37.83280273 8.91210938 37.85351562 C10.60841265 37.88861155 12.30431136 37.94241057 14 38 C13.95875 36.72125 13.9175 35.4425 13.875 34.125 C13.86101223 29.69087748 14.54927748 25.6655707 15.5625 21.359375 C16.02646648 18.85727004 16.0720282 16.53899405 16 14 C13.36 14 10.72 14 8 14 Z " fill="#060D0F" transform="translate(90,265)"/>
<path d="M0 0 C5.28 0 10.56 0 16 0 C16.81088468 9.10344752 17.10066396 18.05224603 17 27.1875 C16.97459565 29.57677869 16.95352701 31.96610876 16.9375 34.35546875 C16.92589844 35.39340576 16.91429687 36.43134277 16.90234375 37.50073242 C16.82812434 39.99954071 16.82812434 39.99954071 18 42 C19.91985828 40.10730953 21.83591037 38.21100983 23.75 36.3125 C24.28882813 35.78205078 24.82765625 35.25160156 25.3828125 34.70507812 C25.91132813 34.17978516 26.43984375 33.65449219 26.984375 33.11328125 C27.51256836 32.59290283 28.04076172 32.07252441 28.58496094 31.53637695 C30.19902192 29.88475143 30.19902192 29.88475143 31.75 27.125 C34.88591079 24.16330648 37.2672594 24.48457445 41.4609375 24.56054688 C42.84152344 24.62338867 42.84152344 24.62338867 44.25 24.6875 C45.18585938 24.71005859 46.12171875 24.73261719 47.0859375 24.75585938 C49.39225674 24.81469405 51.69530838 24.89682854 54 25 C53.21654285 26.17219543 52.42297164 27.33763668 51.625 28.5 C51.18414062 29.1496875 50.74328125 29.799375 50.2890625 30.46875 C49.65097656 31.22671875 49.65097656 31.22671875 49 32 C48.34 32 47.68 32 47 32 C46.773125 32.53625 46.54625 33.0725 46.3125 33.625 C44.54429911 36.82460161 42.46329797 39.29037223 40 42 C39.34 42 38.68 42 38 42 C38 42.66 38 43.32 38 44 C37.34 44 36.68 44 36 44 C36 44.66 36 45.32 36 46 C35.34 46 34.68 46 34 46 C34.66 47.093125 35.32 48.18625 36 49.3125 C37.58464929 51.93707538 38 52.8256378 38 56 C38.66 56 39.32 56 40 56 C40.268125 56.49886719 40.53625 56.99773437 40.8125 57.51171875 C44.1127015 63.55846953 47.71601263 69.37845968 51.42578125 75.1796875 C53 78 53 78 53 81 C53.66 81 54.32 81 55 81 C55.33 82.32 55.66 83.64 56 85 C50.9393791 87.53031045 43.59936366 86.78186947 38.13427734 85.78515625 C32.94366219 83.87563688 30.9763356 78.61652279 28.76953125 73.90234375 C28.4751416 73.2357373 28.18075195 72.56913086 27.87744141 71.88232422 C26.65417071 69.25811247 25.08869982 66.93491353 23.4375 64.5625 C22.72400391 63.51255859 22.72400391 63.51255859 21.99609375 62.44140625 C21.66738281 61.96574219 21.33867187 61.49007812 21 61 C18.82161302 62.42585818 18.82161302 62.42585818 17 65 C16.51710322 68.05358993 16.66894043 71.04455223 16.8125 74.125 C17.09136029 82.81727941 17.09136029 82.81727941 16 85 C8.08 85.495 8.08 85.495 0 86 C0 57.62 0 29.24 0 0 Z " fill="#0C1213" transform="translate(300,210)"/>
<path d="M0 0 C2.79192205 -0.05380578 5.5828141 -0.09357669 8.375 -0.125 C9.1690625 -0.14175781 9.963125 -0.15851563 10.78125 -0.17578125 C12.85492015 -0.19335473 14.92883241 -0.10335168 17 0 C19.79367432 2.79367432 20.57996687 6.14513705 21.8125 9.8125 C24.08377233 16.43763101 26.50147881 22.96279327 29.1171875 29.4609375 C30 32 30 32 30 35 C30.66 35 31.32 35 32 35 C32.17015625 34.33355469 32.3403125 33.66710937 32.515625 32.98046875 C33.80441943 28.07893675 35.20313144 23.3034686 37 18.5625 C38.88759776 13.56973187 40.15049303 8.54656718 41.2890625 3.3359375 C41.52367187 2.56507813 41.75828125 1.79421875 42 1 C45.30994713 -0.65497356 48.99123 -0.10084335 52.625 -0.0625 C53.42679687 -0.05798828 54.22859375 -0.05347656 55.0546875 -0.04882812 C57.03649006 -0.03703168 59.01825433 -0.01909605 61 0 C59.59587966 7.73670308 56.86598295 15.11205292 53.75 22.3125 C51.26944762 28.11562713 49.22630615 34.03184051 47.1875 40 C44.53315296 47.72213815 41.79415977 55.39758928 38.8125 63 C38.34976685 64.20849609 38.34976685 64.20849609 37.87768555 65.44140625 C35.17810097 72.21077027 32.14952934 78.49937541 25.375 81.875 C24.24191406 82.45894531 24.24191406 82.45894531 23.0859375 83.0546875 C19.54557772 84.65912021 16.78818639 85.13634223 12.9375 85.125 C11.62072266 85.12886719 11.62072266 85.12886719 10.27734375 85.1328125 C8 85 8 85 6 84 C6 79.05 6 74.1 6 69 C11.94 68.505 11.94 68.505 18 68 C21.67246987 58.81882531 20.34253499 54.17081595 17 45 C15.84093655 42.29938216 14.60616062 39.64774718 13.34765625 36.9921875 C10.87049834 31.49217892 8.86895286 25.80242919 6.79248047 20.14208984 C5.97000316 17.91891796 5.13007062 15.70301723 4.28515625 13.48828125 C3.86834595 12.39229614 3.86834595 12.39229614 3.44311523 11.27416992 C2.90705286 9.86594639 2.3688804 8.45852389 1.82836914 7.05200195 C0 2.22405106 0 2.22405106 0 0 Z " fill="#111618" transform="translate(383,235)"/>
<path d="M0 0 C0.495 0.99 0.495 0.99 1 2 C1.99 1.67 2.98 1.34 4 1 C4.433125 1.495 4.86625 1.99 5.3125 2.5 C6.99740483 4.33218192 6.99740483 4.33218192 10 4 C10.33 3.34 10.66 2.68 11 2 C11.66 3.65 12.32 5.3 13 7 C13.61488281 6.855625 14.22976562 6.71125 14.86328125 6.5625 C15.67152344 6.376875 16.47976562 6.19125 17.3125 6 C18.11300781 5.814375 18.91351563 5.62875 19.73828125 5.4375 C22 5 22 5 25 5 C23.54848064 11.59781528 20.02791139 17.62945147 16 23 C15.34 23 14.68 23 14 23 C14 23.66 14 24.32 14 25 C13.34 25 12.68 25 12 25 C11.75765625 25.5775 11.5153125 26.155 11.265625 26.75 C7.82597121 32.86494008 0.89443172 37.3726574 -5 41 C-4.67 41.33 -4.34 41.66 -4 42 C-2.08575543 41.8981629 -2.08575543 41.8981629 0.0625 41.5625 C1.361875 41.376875 2.66125 41.19125 4 41 C2.12875622 49.79484578 -3.45380584 57.86787234 -10 64 C-10.66 64 -11.32 64 -12 64 C-12.226875 64.598125 -12.45375 65.19625 -12.6875 65.8125 C-14.35609042 68.59348403 -16.1283832 69.5641916 -19 71 C-19.66 71 -20.32 71 -21 71 C-20.505 71.99 -20.505 71.99 -20 73 C-17.97536745 73.65213292 -17.97536745 73.65213292 -16 74 C-16.24380924 77.29142474 -17.17958275 78.17103119 -19.625 80.5 C-20.73838354 81.34879122 -21.86373362 82.18209527 -23 83 C-24.010625 83.7425 -25.02125 84.485 -26.0625 85.25 C-31.18117687 88.12201779 -37.27338483 87.82777097 -43 88 C-42.86722656 87.28714844 -42.73445313 86.57429688 -42.59765625 85.83984375 C-42.33275391 84.40318359 -42.33275391 84.40318359 -42.0625 82.9375 C-41.88847656 81.99777344 -41.71445313 81.05804688 -41.53515625 80.08984375 C-41.16785675 77.9691583 -40.86372632 75.83685599 -40.61328125 73.69921875 C-37.10674778 52.54834487 -24.75229528 31.62844291 -13 14 C-12.34 14 -11.68 14 -11 14 C-10.7525 13.21625 -10.505 12.4325 -10.25 11.625 C-8.8175952 8.61694992 -7.9690761 8.24509643 -5 7 C-4.67 6.34 -4.34 5.68 -4 5 C-3.34 5.33 -2.68 5.66 -2 6 C-1.34 4.02 -0.68 2.04 0 0 Z " fill="#0E1415" transform="translate(158,166)"/>
<path d="M0 0 C4.50039001 3.57985569 6.57865375 7.50586647 8 13 C8.3774356 16.62309754 8.35137078 20.20432511 8.29296875 23.84375 C8.28872391 24.85344849 8.28447906 25.86314697 8.28010559 26.90344238 C8.26342214 30.10257557 8.22578903 33.30105983 8.1875 36.5 C8.17243982 38.67967835 8.15875375 40.85936665 8.14648438 43.0390625 C8.11355245 48.35962193 8.06184181 53.67970125 8 59 C0.08 59.495 0.08 59.495 -8 60 C-8.05607422 56.1328125 -8.05607422 56.1328125 -8.11328125 52.1875 C-8.1595973 49.66870014 -8.21079409 47.15004298 -8.26245117 44.63134766 C-8.29554293 42.89152828 -8.32362307 41.15160561 -8.34643555 39.41162109 C-8.38027355 36.89896959 -8.43260026 34.38725134 -8.48828125 31.875 C-8.49467117 31.10696045 -8.5010611 30.3389209 -8.50764465 29.54760742 C-8.65277888 24.12059893 -9.74634921 19.95810014 -12 15 C-15.73102381 12.5126508 -19.61370509 12.45171314 -24 13 C-26.73758371 14.99650851 -28.67077438 16.59092126 -29.46520996 19.99108887 C-29.65821552 22.40715912 -29.69212864 24.77943896 -29.671875 27.203125 C-29.69099945 28.52071808 -29.69099945 28.52071808 -29.71051025 29.8649292 C-29.74675381 32.66028341 -29.749519 35.45443163 -29.75 38.25 C-29.77158864 41.05940168 -29.79998812 43.86862023 -29.83233643 46.67791748 C-29.85015062 48.42398997 -29.8603877 50.1701587 -29.86248779 51.9163208 C-29.89147777 57.89147777 -29.89147777 57.89147777 -31 59 C-33.69235776 59.23678716 -36.36498156 59.42198025 -39.0625 59.5625 C-40.20041992 59.62727539 -40.20041992 59.62727539 -41.36132812 59.69335938 C-43.24065438 59.79973633 -45.12030244 59.90039934 -47 60 C-47.90788188 57.27635436 -48.12845942 55.70466096 -48.1328125 52.90625 C-48.13474609 52.05683838 -48.13667969 51.20742676 -48.13867188 50.33227539 C-48.13416016 49.39762451 -48.12964844 48.46297363 -48.125 47.5 C-48.12306641 46.52345459 -48.12113281 45.54690918 -48.11914062 44.54077148 C-48.03575418 29.35633063 -47.48479428 14.17579229 -47 -1 C-41.39 -1 -35.78 -1 -30 -1 C-29.67 -0.01 -29.34 0.98 -29 2 C-28.46375 1.54625 -27.9275 1.0925 -27.375 0.625 C-19.45444317 -4.79432836 -8.1876 -4.84572245 0 0 Z " fill="#050A0B" transform="translate(282,236)"/>
<path d="M0 0 C5.61 0 11.22 0 17 0 C18.55879555 3.11759111 18.12952133 6.42514486 18.11352539 9.84619141 C18.11367142 10.65602982 18.11381744 11.46586823 18.1139679 12.30024719 C18.11326977 14.98404596 18.10548204 17.66777581 18.09765625 20.3515625 C18.09579171 22.20958417 18.09436798 24.06760633 18.09336853 25.92562866 C18.08954615 30.82142488 18.07971823 35.71719155 18.06866455 40.61297607 C18.05844444 45.60656331 18.05386962 50.60015532 18.04882812 55.59375 C18.03809573 65.39584842 18.02050117 75.19791713 18 85 C12.06 85.33 6.12 85.66 0 86 C-1.00950765 81.96196938 -1.14080441 78.35166243 -1.12939453 74.23388672 C-1.13114685 73.45622955 -1.13289917 72.67857239 -1.13470459 71.87734985 C-1.13909968 69.31143959 -1.13619393 66.74559844 -1.1328125 64.1796875 C-1.13348607 62.39657579 -1.13445655 60.61346418 -1.13571167 58.83035278 C-1.13718535 55.0963656 -1.13504414 51.36240236 -1.13037109 47.62841797 C-1.12466573 42.83530212 -1.12796 38.04224216 -1.13394356 33.24912834 C-1.137551 29.5689349 -1.13640988 25.88875478 -1.13381577 22.20856094 C-1.13314743 20.44066486 -1.13397166 18.67276758 -1.13629532 16.90487289 C-1.13882572 14.43899052 -1.13497612 11.97319975 -1.12939453 9.50732422 C-1.13141876 8.77273987 -1.13344299 8.03815552 -1.13552856 7.28131104 C-1.11426618 2.22853235 -1.11426618 2.22853235 0 0 Z " fill="#1C2122" transform="translate(205,210)"/>
<path d="M0 0 C5.28 0 10.56 0 16 0 C16 28.05 16 56.1 16 85 C8.08 85.495 8.08 85.495 0 86 C-1.76328472 84.23671528 -1.12615644 81.90482856 -1.13552856 79.55593872 C-1.13350433 78.77564301 -1.1314801 77.99534729 -1.12939453 77.19140625 C-1.13114685 76.37356659 -1.13289917 75.55572693 -1.13470459 74.71310425 C-1.13912385 71.9962149 -1.13618486 69.27939007 -1.1328125 66.5625 C-1.13348552 64.68302396 -1.13445553 62.80354801 -1.13571167 60.92407227 C-1.13718874 56.97964654 -1.13503379 53.03524342 -1.13037109 49.09082031 C-1.1246738 44.02287497 -1.12795276 38.95498258 -1.13394356 33.88703918 C-1.13754892 30.00443113 -1.1364107 26.12183572 -1.13381577 22.23922729 C-1.13314643 20.37002557 -1.13397516 18.50082272 -1.13629532 16.63162231 C-1.13882143 14.02391496 -1.13498184 11.41629459 -1.12939453 8.80859375 C-1.13141876 8.02829803 -1.13344299 7.24800232 -1.13552856 6.44406128 C-1.11426253 1.11426253 -1.11426253 1.11426253 0 0 Z " fill="#171D1E" transform="translate(362,210)"/>
<path d="M0 0 C8.77257619 -0.38893195 14.69102472 -0.42759397 21.75 5.1875 C27.11666782 11.89583478 27.42534524 18.59447745 27.29296875 26.84375 C27.28872391 27.85344849 27.28447906 28.86314697 27.28010559 29.90344238 C27.26342214 33.10257557 27.22578903 36.30105983 27.1875 39.5 C27.17243982 41.67967835 27.15875375 43.85936665 27.14648438 46.0390625 C27.11355245 51.35962193 27.06184181 56.67970125 27 62 C19.08 62.495 19.08 62.495 11 63 C10.96261719 60.421875 10.92523438 57.84375 10.88671875 55.1875 C10.8404027 52.66870014 10.78920591 50.15004298 10.73754883 47.63134766 C10.70445707 45.89152828 10.67637693 44.15160561 10.65356445 42.41162109 C10.61972645 39.89896959 10.56739974 37.38725134 10.51171875 34.875 C10.50532883 34.10696045 10.4989389 33.3389209 10.49235535 32.54760742 C10.34723637 27.12116923 9.25556116 22.95682586 7 18 C3.36924838 15.68035313 -0.76410904 15.49834011 -5 15 C-5 14.67 -5 14.34 -5 14 C-1.535 13.505 -1.535 13.505 2 13 C2.33 10.03 2.66 7.06 3 4 C3.66 4 4.32 4 5 4 C3.74458443 1.48916886 2.49936512 1.12874554 0 0 Z " fill="#121718" transform="translate(263,233)"/>
<path d="M0 0 C0.98150241 2.94450722 1.1613058 4.93518979 1 8 C0.67 8.33 0.34 8.66 0 9 C0.7425 8.79375 1.485 8.5875 2.25 8.375 C5.32330841 7.95591249 6.42786866 8.38050989 9 10 C8.34 10.66 7.68 11.32 7 12 C8.21236328 12.05607422 8.21236328 12.05607422 9.44921875 12.11328125 C11.05216797 12.21189453 11.05216797 12.21189453 12.6875 12.3125 C14.27111328 12.39951172 14.27111328 12.39951172 15.88671875 12.48828125 C19.29063405 13.04777047 21.2369343 13.96278343 24 16 C26.67348144 20.01022217 26.71022805 23.28441606 26 28 C24 31.0625 24 31.0625 22 33 C23.04874998 35.62187494 23.64931313 36.79371361 26.125 38.25 C26.74375 38.4975 27.3625 38.745 28 39 C28 39.66 28 40.32 28 41 C28.928125 41.185625 28.928125 41.185625 29.875 41.375 C32 42 32 42 34 44 C32.68 44 31.36 44 30 44 C29.67 44.99 29.34 45.98 29 47 C28.01 47.495 28.01 47.495 27 48 C27 48.66 27 49.32 27 50 C22.09747455 48.4679608 17.57028744 45.68850888 14 42 C13.34 40.02 12.68 38.04 12 36 C7.38 36 2.76 36 -2 36 C-2 35.67 -2 35.34 -2 35 C-0.35 35 1.3 35 3 35 C2.79375 34.21625 2.5875 33.4325 2.375 32.625 C2.25125 31.75875 2.1275 30.8925 2 30 C2.66 29.34 3.32 28.68 4 28 C-3.92 27.67 -11.84 27.34 -20 27 C-20 26.67 -20 26.34 -20 26 C-7.79 26 4.42 26 17 26 C16.505 25.01 16.505 25.01 16 24 C15.09757568 24.00523682 14.19515137 24.01047363 13.26538086 24.01586914 C9.89021149 24.03299758 6.5150889 24.04549212 3.13989258 24.05493164 C1.68415596 24.05993417 0.22842429 24.0667383 -1.22729492 24.07543945 C-3.32992788 24.087685 -5.43249391 24.09326923 -7.53515625 24.09765625 C-8.797229 24.10289307 -10.05930176 24.10812988 -11.35961914 24.11352539 C-14.97671982 24.00072599 -18.43079551 23.58112682 -22 23 C-22.33 23.99 -22.66 24.98 -23 26 C-23.66 24.68 -24.32 23.36 -25 22 C-26.08573289 24.89528771 -25.91023785 27.0776552 -25.4375 30.0625 C-25 34 -25 34 -27 37 C-27.66 36.67 -28.32 36.34 -29 36 C-29 34.68 -29 33.36 -29 32 C-29.495 31.236875 -29.99 30.47375 -30.5 29.6875 C-32.45114165 26.19170454 -32.42367228 23.95427459 -32 20 C-30.78343764 17.26273468 -29.84056753 15.58395196 -27.375 13.87109375 C-24.01735871 12.63959045 -20.77282717 12.78842769 -17.25 12.875 C-16.55261719 12.88402344 -15.85523437 12.89304687 -15.13671875 12.90234375 C-13.42433042 12.92580112 -11.71211996 12.96166896 -10 13 C-10 13.33 -10 13.66 -10 14 C-13.3 14.33 -16.6 14.66 -20 15 C-20.33 16.65 -20.66 18.3 -21 20 C-18.3178719 21.34106405 -16.11601968 21.21450419 -13.1171875 21.31640625 C-11.95058594 21.35830078 -10.78398438 21.40019531 -9.58203125 21.44335938 C-8.35871094 21.48267578 -7.13539062 21.52199219 -5.875 21.5625 C-4.64394531 21.60568359 -3.41289063 21.64886719 -2.14453125 21.69335938 C0.90352853 21.79968704 3.9516719 21.90171781 7 22 C7.185625 20.824375 7.185625 20.824375 7.375 19.625 C8 17 8 17 10 15 C4.555 14.505 4.555 14.505 -1 14 C-1.33 14.66 -1.66 15.32 -2 16 C-2.99 15.67 -3.98 15.34 -5 15 C-5.6875 12.9375 -5.6875 12.9375 -6 11 C-5.01 10.67 -4.02 10.34 -3 10 C-2.23300838 8.1927779 -2.23300838 8.1927779 -1.875 6.0625 C-1.40943487 3.81226851 -1.03133241 2.06266481 0 0 Z " fill="#262B2C" transform="translate(116,244)"/>
<path d="M0 0 C0.66 0.33 1.32 0.66 2 1 C2 1.99 2 2.98 2 4 C2.66 4.33 3.32 4.66 4 5 C4.33 5.66 4.66 6.32 5 7 C1.48673763 10.66940737 -2.13972671 13.7330999 -6.25 16.75 C-9.76104144 19.21071527 -9.76104144 19.21071527 -13 22 C-13.12586453 24.69216609 -13.18866467 27.35727119 -13.203125 30.05078125 C-13.20882507 30.86113327 -13.21452515 31.67148529 -13.22039795 32.50639343 C-13.22986341 34.22552173 -13.23638804 35.9446683 -13.24023438 37.66381836 C-13.24992138 40.2911771 -13.28092161 42.91774758 -13.3125 45.54492188 C-13.31903169 47.21353701 -13.32428151 48.88215776 -13.328125 50.55078125 C-13.3404718 51.33632889 -13.3528186 52.12187653 -13.36553955 52.93122864 C-13.35228335 56.18769422 -13.23124828 58.57227538 -11.66699219 61.46557617 C-9.97045793 63.23752779 -9.97045793 63.23752779 -7 64 C-7 64.66 -7 65.32 -7 66 C-7.969375 66.2475 -8.93875 66.495 -9.9375 66.75 C-10.948125 67.1625 -11.95875 67.575 -13 68 C-13.96877057 70.03243548 -13.96877057 70.03243548 -14 72 C-18.49198897 70.62744781 -20.5719705 69.03567548 -23 65 C-23.59398765 61.39616495 -23.56052283 57.8333503 -23.53125 54.1875 C-23.5350769 53.14102295 -23.53890381 52.0945459 -23.54284668 51.01635742 C-23.54556438 48.80744462 -23.53821322 46.59849956 -23.52148438 44.38964844 C-23.50007377 41.01163881 -23.52129197 37.6357561 -23.546875 34.2578125 C-23.5442317 32.10937031 -23.53910668 29.96092945 -23.53125 27.8125 C-23.53934692 26.80405029 -23.54744385 25.79560059 -23.55578613 24.7565918 C-23.4974449 20.38640454 -23.45790624 17.75055127 -21.14648438 13.96191406 C-18.57135373 11.60821185 -15.91925122 9.66210955 -13 7.75 C-11.96875 7.06421875 -10.9375 6.3784375 -9.875 5.671875 C-7.42435094 4.2467693 -5.7137246 3.56841529 -3 3 C-1.26973898 1.52109931 -1.26973898 1.52109931 0 0 Z " fill="#131919" transform="translate(92,277)"/>
<path d="M0 0 C0.92039062 0.04189453 1.84078125 0.08378906 2.7890625 0.12695312 C3.72492188 0.14951172 4.66078125 0.17207031 5.625 0.1953125 C7.93131924 0.25414717 10.23437088 0.33628167 12.5390625 0.43945312 C11.75560535 1.61164855 10.96203414 2.77708981 10.1640625 3.93945312 C9.72320312 4.58914062 9.28234375 5.23882812 8.828125 5.90820312 C8.40273438 6.41351563 7.97734375 6.91882813 7.5390625 7.43945312 C6.8790625 7.43945312 6.2190625 7.43945312 5.5390625 7.43945312 C5.3121875 7.97570312 5.0853125 8.51195312 4.8515625 9.06445312 C3.10524194 12.22446176 0.8987776 14.70715143 -1.4609375 17.43945312 C-3.4609375 16.43945312 -3.4609375 16.43945312 -4.4609375 13.43945312 C-7.34531529 14.73245007 -9.33313171 16.09886676 -11.4609375 18.43945312 C-12.1209375 17.77945313 -12.7809375 17.11945313 -13.4609375 16.43945312 C-15.4409375 17.75945312 -17.4209375 19.07945312 -19.4609375 20.43945312 C-19.4609375 19.44945312 -19.4609375 18.45945313 -19.4609375 17.43945312 C-20.4509375 17.10945313 -21.4409375 16.77945313 -22.4609375 16.43945312 C-21.71328125 15.70339844 -20.965625 14.96734375 -20.1953125 14.20898438 C-19.20038571 13.22344369 -18.20560162 12.23775892 -17.2109375 11.25195312 C-16.71980469 10.76919922 -16.22867187 10.28644531 -15.72265625 9.7890625 C-15.23925781 9.30888672 -14.75585938 8.82871094 -14.2578125 8.33398438 C-13.77086914 7.85485596 -13.28392578 7.37572754 -12.78222656 6.88208008 C-11.25554253 5.31009728 -11.25554253 5.31009728 -9.7421875 2.59570312 C-6.58079965 -0.392458 -4.22853959 -0.07660398 0 0 Z " fill="#131819" transform="translate(341.4609375,234.560546875)"/>
<path d="M0 0 C1.2077558 3.62326739 0.54311128 4.64146369 -1 8 C-0.01 8.99 0.98 9.98 2 11 C2.33 10.01 2.66 9.02 3 8 C6.96 8.33 10.92 8.66 15 9 C14.01 10.32 13.02 11.64 12 13 C11.29485154 15.14733927 11.29485154 15.14733927 11 17 C6.72922344 17.05794812 2.45854764 17.09357874 -1.8125 17.125 C-3.02744141 17.14175781 -4.24238281 17.15851563 -5.49414062 17.17578125 C-6.65751953 17.18222656 -7.82089844 17.18867188 -9.01953125 17.1953125 C-10.62985229 17.21102295 -10.62985229 17.21102295 -12.27270508 17.22705078 C-15 17 -15 17 -18 15 C-17.835 14.195625 -17.67 13.39125 -17.5 12.5625 C-16.96808161 10.2715557 -16.96808161 10.2715557 -17 9 C-13.7 8.67 -10.4 8.34 -7 8 C-6.54625 6.865625 -6.0925 5.73125 -5.625 4.5625 C-3.54385965 0 -3.54385965 0 0 0 Z " fill="#020709" transform="translate(112,249)"/>
<path d="M0 0 C0.66 0.33 1.32 0.66 2 1 C2 1.99 2 2.98 2 4 C2.66 4.33 3.32 4.66 4 5 C4.33 5.66 4.66 6.32 5 7 C-0.84149104 13.00375468 -3.68263278 15.30688606 -12 16 C-12.33 16.99 -12.66 17.98 -13 19 C-13.763125 18.814375 -14.52625 18.62875 -15.3125 18.4375 C-18.08967375 17.77180827 -18.08967375 17.77180827 -21 19 C-21.33 17.68 -21.66 16.36 -22 15 C-8.51379983 4.3309172 -8.51379983 4.3309172 -3 3 C-1.26973898 1.52109931 -1.26973898 1.52109931 0 0 Z " fill="#0A0F10" transform="translate(92,277)"/>
<path d="M0 0 C0.69738281 0.00902344 1.39476563 0.01804687 2.11328125 0.02734375 C3.82566958 0.05080112 5.53788004 0.08666896 7.25 0.125 C7.25 0.455 7.25 0.785 7.25 1.125 C3.95 1.455 0.65 1.785 -2.75 2.125 C-3.08 3.775 -3.41 5.425 -3.75 7.125 C-0.6950722 8.6524639 2.5263314 8.36491832 5.8828125 8.44140625 C7.01056595 8.4725779 7.01056595 8.4725779 8.16110229 8.50437927 C10.56564085 8.56982705 12.97028967 8.62873738 15.375 8.6875 C17.00391771 8.73068977 18.63282422 8.77430421 20.26171875 8.81835938 C24.25769915 8.92550351 28.25379059 9.02678433 32.25 9.125 C28.88552142 11.1525265 26.31587977 11.37111316 22.41796875 11.35546875 C21.28939453 11.35353516 20.16082031 11.35160156 18.99804688 11.34960938 C17.82306641 11.33736328 16.64808594 11.32511719 15.4375 11.3125 C13.69243164 11.3115332 13.69243164 11.3115332 11.91210938 11.31054688 C6.26157826 11.28160278 0.81349553 11.14023641 -4.75 10.125 C-5.08 11.115 -5.41 12.105 -5.75 13.125 C-6.41 11.805 -7.07 10.485 -7.75 9.125 C-8.83573289 12.02028771 -8.66023785 14.2026552 -8.1875 17.1875 C-7.75 21.125 -7.75 21.125 -9.75 24.125 C-10.41 23.795 -11.07 23.465 -11.75 23.125 C-11.75 21.805 -11.75 20.485 -11.75 19.125 C-12.245 18.361875 -12.74 17.59875 -13.25 16.8125 C-15.20114165 13.31670454 -15.17367228 11.07927459 -14.75 7.125 C-13.53343764 4.38773468 -12.59056753 2.70895196 -10.125 0.99609375 C-6.76735871 -0.23540955 -3.52282717 -0.08657231 0 0 Z " fill="#444748" transform="translate(98.75,256.875)"/>
<path d="M0 0 C0.99 0.66 1.98 1.32 3 2 C3 2.99 3 3.98 3 5 C9.6 5.33 16.2 5.66 23 6 C19.70915707 8.19389529 17.90732442 8.69354318 14 9 C10.625 8.0625 10.625 8.0625 8 7 C8.20625 7.61875 8.4125 8.2375 8.625 8.875 C8.74875 9.57625 8.8725 10.2775 9 11 C8.34 11.66 7.68 12.32 7 13 C6.83312552 15.58354218 6.83312552 15.58354218 7 18 C1.86954528 15.43477264 -0.04066671 9.03828559 -2 4 C-1.34 4 -0.68 4 0 4 C-0.33 3.01 -0.66 2.02 -1 1 C-0.67 0.67 -0.34 0.34 0 0 Z " fill="#020709" transform="translate(90,265)"/>
<path d="M0 0 C0.98150241 2.94450722 1.1613058 4.93518979 1 8 C0.67 8.33 0.34 8.66 0 9 C0.7425 8.79375 1.485 8.5875 2.25 8.375 C5.32330841 7.95591249 6.42786866 8.38050989 9 10 C8.34 10.66 7.68 11.32 7 12 C10.96 12.33 14.92 12.66 19 13 C19 13.33 19 13.66 19 14 C12.4 14 5.8 14 -1 14 C-1.33 14.66 -1.66 15.32 -2 16 C-2.99 15.67 -3.98 15.34 -5 15 C-5.6875 12.9375 -5.6875 12.9375 -6 11 C-5.01 10.67 -4.02 10.34 -3 10 C-2.23300838 8.1927779 -2.23300838 8.1927779 -1.875 6.0625 C-1.40943487 3.81226851 -1.03133241 2.06266481 0 0 Z " fill="#5A5D5E" transform="translate(116,244)"/>
<path d="M0 0 C0.66 0.33 1.32 0.66 2 1 C2 1.33 2 1.66 2 2 C21.14 2.33 40.28 2.66 60 3 C55.85245181 5.0737741 54.2581681 5.22516336 49.76269531 5.13525391 C48.50169006 5.11508209 47.24068481 5.09491028 45.94146729 5.0741272 C44.57034796 5.04182671 43.19923396 5.00929984 41.828125 4.9765625 C40.42138285 4.95038289 39.01462343 4.92511688 37.60784912 4.90072632 C33.91198808 4.83419726 30.21649197 4.75527866 26.52093506 4.67376709 C22.7471717 4.59272758 18.9731948 4.52342192 15.19921875 4.453125 C7.79922045 4.31355886 0.3995684 4.1609017 -7 4 C-7.33 3.34 -7.66 2.68 -8 2 C-6.8553125 2.061875 -6.8553125 2.061875 -5.6875 2.125 C-2.77281584 2.22080824 -2.77281584 2.22080824 0 0 Z " fill="#1E2121" transform="translate(86,347)"/>
<path d="M0 0 C3.62528568 -0.20140476 5.86501708 0.14223235 9 2 C9 5.66666667 9 9.33333333 9 13 C8.34 12.67 7.68 12.34 7 12 C7 10.68 7 9.36 7 8 C4.69 7.67 2.38 7.34 0 7 C-0.33 7.99 -0.66 8.98 -1 10 C-1.33 8.35 -1.66 6.7 -2 5 C-1.01 4.67 -0.02 4.34 1 4 C0.67 2.68 0.34 1.36 0 0 Z " fill="#1C2222" transform="translate(98,272)"/>
<path d="M0 0 C-1.20381448 2.49361571 -2.45428722 4.68143083 -4 7 C-6.31 6.67 -8.62 6.34 -11 6 C-10.67 4.35 -10.34 2.7 -10 1 C-3.71428571 -1.42857143 -3.71428571 -1.42857143 0 0 Z " fill="#020708" transform="translate(89,343)"/>
<path d="M0 0 C0.66 0.33 1.32 0.66 2 1 C2 1.99 2 2.98 2 4 C2.66 4.33 3.32 4.66 4 5 C4.33 5.66 4.66 6.32 5 7 C3.35 8.65 1.7 10.3 0 12 C-2.125 9.875 -2.125 9.875 -4 7 C-3.375 3.75 -3.375 3.75 -2 1 C-1.34 0.67 -0.68 0.34 0 0 Z " fill="#181D1D" transform="translate(92,277)"/>
<path d="M0 0 C3.63 0 7.26 0 11 0 C10.21625 0.721875 9.4325 1.44375 8.625 2.1875 C6.15587562 4.83299041 5.06739722 6.60373611 4 10 C1.81024227 6.71536341 1.00193437 3.79303725 0 0 Z " fill="#1E2122" transform="translate(383,235)"/>
<path d="M0 0 C0 0.99 0 1.98 0 3 C-0.7425 3.70125 -1.485 4.4025 -2.25 5.125 C-5.68243761 8.7134575 -7.21553599 12.42419565 -9 17 C-9.99 16.67 -10.98 16.34 -12 16 C-11.67 14.35 -11.34 12.7 -11 11 C-10.01 10.67 -9.02 10.34 -8 10 C-7.71125 9.4225 -7.4225 8.845 -7.125 8.25 C-5.61750467 5.23500934 -3.42990324 3.30529282 -1 1 C-0.67 0.67 -0.34 0.34 0 0 Z " fill="#343738" transform="translate(165,155)"/>
<path d="M0 0 C1.65 0.33 3.3 0.66 5 1 C6.25 8.625 6.25 8.625 4 12 C3.34 11.67 2.68 11.34 2 11 C2 9.68 2 8.36 2 7 C1.00585407 5.32983484 0.0064275 3.66279327 -1 2 C-0.67 1.34 -0.34 0.68 0 0 Z " fill="#383C3C" transform="translate(85,269)"/>
<path d="M0 0 C0.94875 0.04125 1.8975 0.0825 2.875 0.125 C2.31725728 3.35990776 1.50288492 5.10355006 -1.125 7.125 C-2.115 7.125 -3.105 7.125 -4.125 7.125 C-4.75 4.75 -4.75 4.75 -5.125 2.125 C-3.125 0.125 -3.125 0.125 0 0 Z " fill="#282C2C" transform="translate(139.125,239.875)"/>
<path d="M0 0 C1.32 0.33 2.64 0.66 4 1 C3.32829194 4.8063457 2.27253436 8.35206816 1 12 C-1 11 -1 11 -2 8 C-1.54451823 5.26187393 -0.74685247 2.6798824 0 0 Z " fill="#040808" transform="translate(427,235)"/>
<path d="M0 0 C0.33 0.66 0.66 1.32 1 2 C-0.4375 4.625 -0.4375 4.625 -2 7 C-1.34 7.33 -0.68 7.66 0 8 C-1.65 9.32 -3.3 10.64 -5 12 C-5 11.01 -5 10.02 -5 9 C-5.99 8.67 -6.98 8.34 -8 8 C-5.36 5.36 -2.72 2.72 0 0 Z " fill="#2F3434" transform="translate(327,243)"/>
<path d="M0 0 C-1.96629213 8.01642178 -1.96629213 8.01642178 -5 10 C-6.32 10 -7.64 10 -9 10 C-9 8 -9 8 -6.5 5.375 C-5.675 4.59125 -4.85 3.8075 -4 3 C-4.66 3 -5.32 3 -6 3 C-6.66 2.34 -7.32 1.68 -8 1 C-5.07175348 0.02391783 -3.04386724 -0.08226668 0 0 Z " fill="#454749" transform="translate(162,207)"/>
<path d="M0 0 C0.33 0 0.66 0 1 0 C1 2.64 1 5.28 1 8 C1.33 7.01 1.66 6.02 2 5 C2.66 5 3.32 5 4 5 C4 5.99 4 6.98 4 8 C4.66 8 5.32 8 6 8 C4.62308038 10.75383923 2.63279958 11.51483101 0 13 C-0.19658808 11.58456585 -0.38187546 10.16755969 -0.5625 8.75 C-0.66691406 7.96109375 -0.77132812 7.1721875 -0.87890625 6.359375 C-1.00027349 3.99467126 -0.69633257 2.2488963 0 0 Z " fill="#2E3333" transform="translate(104,290)"/>
<path d="M0 0 C-2.475 3.465 -2.475 3.465 -5 7 C-5.33 6.34 -5.66 5.68 -6 5 C-6.66 5 -7.32 5 -8 5 C-8.33 4.01 -8.66 3.02 -9 2 C-5.5647952 -0.29013653 -4.014669 -0.17842973 0 0 Z " fill="#252827" transform="translate(354,235)"/>
<path d="M0 0 C0.66 0 1.32 0 2 0 C2 0.66 2 1.32 2 2 C2.66 2.33 3.32 2.66 4 3 C3.67 3.99 3.34 4.98 3 6 C1.68 6 0.36 6 -1 6 C-1.33 7.32 -1.66 8.64 -2 10 C-2.25 3.375 -2.25 3.375 0 0 Z " fill="#3F4140" transform="translate(102,205)"/>
<path d="M0 0 C0.99 0 1.98 0 3 0 C3 3.33333333 3 6.66666667 3 10 C2.01 9.67 1.02 9.34 0 9 C-1.1875 5.4375 -1.1875 5.4375 -2 2 C-1.34 2 -0.68 2 0 2 C0 1.34 0 0.68 0 0 Z " fill="#4F5252" transform="translate(114,233)"/>
<path d="M0 0 C0 3 0 3 -2.4375 5.6875 C-5 8 -5 8 -6 8 C-6 6.35 -6 4.7 -6 3 C-4.02 2.01 -2.04 1.02 0 0 Z " fill="#070D0F" transform="translate(400,257)"/>
<path d="M0 0 C2 1 2 1 4 4 C1.8614515 6.1385485 0.86724686 6.42655063 -2 7 C-2.6875 5.1875 -2.6875 5.1875 -3 3 C-1.5625 1.25 -1.5625 1.25 0 0 Z " fill="#3F4142" transform="translate(73,289)"/>
<path d="M0 0 C0.33 0 0.66 0 1 0 C1.66 2.31 2.32 4.62 3 7 C2.34 7 1.68 7 1 7 C0.67 7.99 0.34 8.98 0 10 C-0.99 10 -1.98 10 -3 10 C-2.01 6.7 -1.02 3.4 0 0 Z " fill="#353837" transform="translate(123,222)"/>
<path d="M0 0 C0.66 0.33 1.32 0.66 2 1 C-0.36292656 3.52588702 -1.66462511 4.88820837 -5 6 C-6.66710346 7.49985609 -6.66710346 7.49985609 -8 9 C-8.66 8.34 -9.32 7.68 -10 7 C-6.7 4.69 -3.4 2.38 0 0 Z " fill="#707272" transform="translate(85,281)"/>
<path d="M0 0 C1.32 0.33 2.64 0.66 4 1 C3.67 2.32 3.34 3.64 3 5 C2.34 5 1.68 5 1 5 C1 8.3 1 11.6 1 15 C0.67 15 0.34 15 0 15 C0 10.05 0 5.1 0 0 Z " fill="#131617" transform="translate(300,211)"/>
<path d="M0 0 C0 3.58912412 -0.66436554 4.10857029 -3 6.6875 C-3.556875 7.31011719 -4.11375 7.93273437 -4.6875 8.57421875 C-5.120625 9.04472656 -5.55375 9.51523438 -6 10 C-6.66 9.34 -7.32 8.68 -8 8 C-3.375 2.25 -3.375 2.25 0 0 Z " fill="#A0A1A2" transform="translate(165,155)"/>
<path d="M0 0 C0.66 0.33 1.32 0.66 2 1 C2 1.99 2 2.98 2 4 C-0.97 4 -3.94 4 -7 4 C-7.33 3.34 -7.66 2.68 -8 2 C-6.8553125 2.061875 -6.8553125 2.061875 -5.6875 2.125 C-2.77281584 2.22080824 -2.77281584 2.22080824 0 0 Z " fill="#393D3D" transform="translate(86,347)"/>
<path d="M0 0 C0.66 0.33 1.32 0.66 2 1 C1.0479279 2.00596297 0.08812654 3.00461563 -0.875 4 C-1.40867188 4.556875 -1.94234375 5.11375 -2.4921875 5.6875 C-4 7 -4 7 -6 7 C-5.8125 5.1875 -5.8125 5.1875 -5 3 C-2.5625 1.1875 -2.5625 1.1875 0 0 Z " fill="#626464" transform="translate(257,235)"/>
<path d="M0 0 C0.66 0.66 1.32 1.32 2 2 C-0.31 3.65 -2.62 5.3 -5 7 C-4.75 4.625 -4.75 4.625 -4 2 C-1.9375 0.6875 -1.9375 0.6875 0 0 Z " fill="#535552" transform="translate(84,291)"/>
<path d="M0 0 C3 1 3 1 4 3 C4.6875 4.9375 4.6875 4.9375 5 7 C4.01 8.485 4.01 8.485 3 10 C2.01 6.7 1.02 3.4 0 0 Z " fill="#45474A" transform="translate(398,274)"/>
<path d="M0 0 C1.32 0.99 2.64 1.98 4 3 C3.34 3 2.68 3 2 3 C2.33 4.65 2.66 6.3 3 8 C1.68 7.34 0.36 6.68 -1 6 C-0.67 4.02 -0.34 2.04 0 0 Z " fill="#020404" transform="translate(129,175)"/>
<path d="M0 0 C3.96 0.33 7.92 0.66 12 1 C12 1.33 12 1.66 12 2 C6.06 2.495 6.06 2.495 0 3 C0 2.01 0 1.02 0 0 Z " fill="#545756" transform="translate(92,302)"/>
<path d="M0 0 C3.96 0 7.92 0 12 0 C8.03571429 2.64285714 8.03571429 2.64285714 5 3 C2.25 2.0625 2.25 2.0625 0 1 C0 0.67 0 0.34 0 0 Z " fill="#444745" transform="translate(263,233)"/>
<path d="M0 0 C1 3 1 3 0.25 5.125 C-1 7 -1 7 -4 8 C-2.87548273 5.0280615 -1.77706209 2.66559313 0 0 Z " fill="#666969" transform="translate(142,185)"/>
</svg>
